# xmcd
#
# Track frame offsets: 
#        150
#        9130
#        22083
#        39485
#        49132
#        60729
#        72837
#        82463
#        91504
#        99682
#        110075
#        120270
#        129608
#        140177
#        151731
#        164359
#        176211
#        184455
#        195705
#        211807
#        225392
#        241134
#        251141
#        262029
#        274204
#        285687
#        298167
#        310868
#        323125
#        336360
#        344325
#
# Disc length: 4756 seconds
#
# Revision: 0
# Processed by: cddbd v1.5.2PL0 Copyright (c) Steve Scherf et al.
# Submitted via: ExactAudioCopy v1.0b1
#
DISCID=d812921f
DTITLE=Ike and Tina Turner - Two To Tango 1965-1967
DYEAR=2008
DGENRE=R&B
TTITLE0=I Can't Believe What You Say
TTITLE1=Am I A Fool In Love
TTITLE2=Tell Her I'm Not Home
TTITLE3=I'm Through With Love
TTITLE4=Somebody (Somewhere) Needs You
TTITLE5=Just To Be With You
TTITLE6=Goodbye, So Long
TTITLE7=He's The One
TTITLE8=Chicken Shack
TTITLE9=Hard Times
TTITLE10=I Don't Need
TTITLE11=Gonna Have Fun
TTITLE12=Two Is A Couple
TTITLE13=Can't Chance A Break Up
TTITLE14=Stagger Lee And Billy
TTITLE15=Dear John
TTITLE16=I Wish My Dreams Would Come True
TTITLE17=Flee, Flee, Fla
TTITLE18=River Deep - Mountain High
TTITLE19=A Love Like Yours (Don't Come Knocing Every Day)
TTITLE20=I'll Never Need More Than This
TTITLE21=Make 'Em Wait
TTITLE22=Beauty Is Just Skin Deep
TTITLE23=Oh Baby (Things Ain't What They Used To Be)
TTITLE24=Anything You Wasn't Born With
TTITLE25=Two To Tango
TTITLE26=A Man Is A Man Is A Man
TTITLE27=Such A Fool For You
TTITLE28=It's Crazy, Baby
TTITLE29=Don't Blame It On Me
TTITLE30=Something Came Over Me
EXTD=
EXTT0=
EXTT1=
EXTT2=
EXTT3=
EXTT4=
EXTT5=
EXTT6=
EXTT7=
EXTT8=
EXTT9=
EXTT10=
EXTT11=
EXTT12=
EXTT13=
EXTT14=
EXTT15=
EXTT16=
EXTT17=
EXTT18=
EXTT19=
EXTT20=
EXTT21=
EXTT22=
EXTT23=
EXTT24=
EXTT25=
EXTT26=
EXTT27=
EXTT28=
EXTT29=
EXTT30=
PLAYORDER=
